<svg width="123" height="80" viewBox="0 0 123 80" fill="none" xmlns="http://www.w3.org/2000/svg">
<path d="M37.0551 5.41212H31.8929C31.1714 5.41214 30.6579 5.52297 30.3526 5.74498C30.0474 5.93925 29.8253 6.3277 29.6865 6.91041L29.6509 7.07726H36.7223L35.5564 12.489H28.4969L23.5252 35.8017H9.82886L10.9528 30.39H17.6295L21.4129 12.489H14.7828L15.9486 7.07726H22.5567L22.6096 6.8274C23.1092 4.44061 24.025 2.70602 25.3572 1.62364C26.7171 0.541304 28.6181 1.83282e-05 31.0603 0H38.221L37.0551 5.41212Z" fill="white"/>
<path fill-rule="evenodd" clip-rule="evenodd" d="M76.1136 6.57755C78.9999 6.57757 81.22 7.31306 82.7742 8.7839C84.3561 10.2271 85.1474 12.3088 85.1474 15.0286C85.1474 17.1101 84.8699 19.0668 84.3148 20.8985C83.7875 22.7024 82.9687 24.2983 81.8586 25.686C80.7762 27.0459 79.3745 28.1142 77.6538 28.8913C75.9609 29.6684 73.9487 30.0567 71.6175 30.0567C68.7589 30.0567 66.5384 29.3355 64.9565 27.8923C63.3745 26.4214 62.5837 24.3397 62.5837 21.6476C62.5837 19.5662 62.8475 17.6236 63.3748 15.8197C63.9298 13.9879 64.7486 12.3779 65.831 10.9902C66.941 9.6027 68.3425 8.52046 70.0353 7.7434C71.756 6.9663 73.7823 6.57755 76.1136 6.57755ZM75.0312 12.6554C74.0876 12.6554 73.2271 13.0163 72.45 13.7378C71.7007 14.4316 71.104 15.3892 70.66 16.6103C70.2159 17.8314 69.9938 19.2053 69.9938 20.7316C69.9938 21.8973 70.2297 22.7302 70.7015 23.2298C71.1733 23.7293 71.8396 23.9789 72.6999 23.9789C73.6434 23.9789 74.4898 23.6321 75.2391 22.9384C76.0162 22.2169 76.6271 21.2593 77.0711 20.0659C77.5152 18.8448 77.7373 17.4706 77.7373 15.9442C77.7372 14.7786 77.501 13.946 77.0292 13.4465C76.5851 12.9192 75.9192 12.6554 75.0312 12.6554Z" fill="white"/>
<path d="M51.9428 18.4004C51.7485 19.3439 51.5818 20.1628 51.4431 20.8566C51.3043 21.5226 51.2347 22.0639 51.2347 22.4802C51.2347 22.9797 51.4152 23.3823 51.7759 23.6876C52.1645 23.9928 52.7753 24.1453 53.6079 24.1453H58.8947L57.7708 29.5575H49.4031C47.3771 29.5575 45.9338 29.1966 45.0734 28.475C44.2409 27.7257 43.8246 26.6015 43.8246 25.1028C43.8246 24.1593 43.9217 23.1325 44.1159 22.0224C44.3379 20.8845 44.5879 19.677 44.8655 18.4004L47.5999 5.41212H40.4528L41.5767 0H55.8558L51.9428 18.4004Z" fill="white"/>
<path d="M94.498 19.0665L98.411 10.4075H102.574L102.824 19.0665L106.113 7.07726H113.107L104.989 29.5575H98.8272L98.328 20.4822L93.9982 29.5575H87.837L89.2942 7.07726H95.9547L94.498 19.0665Z" fill="white"/>
<path d="M21.6477 43.7126H11.5734C11.1016 43.7126 10.7408 43.8238 10.491 44.0458C10.2413 44.2679 10.1162 44.5454 10.1162 44.8784C10.1162 45.2114 10.2133 45.489 10.4076 45.711C10.6018 45.933 10.9211 46.1272 11.3651 46.2937C11.8091 46.4325 12.42 46.5991 13.1971 46.7934C15.2507 47.293 16.8188 47.848 17.9011 48.4585C19.0113 49.0691 19.7605 49.7908 20.149 50.6234C20.5653 51.4282 20.7736 52.3716 20.7736 53.454C20.7736 54.9248 20.3573 56.257 19.5248 57.4504C18.6922 58.616 17.4293 59.546 15.7363 60.2399C14.0434 60.9337 11.9203 61.2803 9.36707 61.2804C6.36969 61.2804 4.09384 60.6837 2.53964 59.4903C0.985496 58.2692 0.138802 56.4515 0 54.0371L7.03578 53.5374C7.11905 54.3144 7.39656 54.8832 7.86835 55.244C8.3679 55.6048 9.17259 55.7852 10.2826 55.7852C11.4205 55.7852 12.2672 55.6606 12.8223 55.4109C13.4051 55.1611 13.6964 54.7307 13.6964 54.1201C13.6964 53.8149 13.6409 53.5652 13.5299 53.371C13.4189 53.1767 13.2247 53.01 12.9472 52.8712C12.6975 52.7047 12.3227 52.5522 11.8233 52.4135C11.3237 52.2469 10.6712 52.0665 9.86636 51.8722C7.36865 51.2894 5.6202 50.5123 4.62107 49.541C3.62195 48.5696 3.12236 47.2096 3.12236 45.4611C3.12236 44.0458 3.41369 42.7969 3.99643 41.7146C4.57925 40.6322 5.55093 39.7993 6.91085 39.2164C8.27075 38.6059 10.1163 38.3009 12.4475 38.3009H22.7721L21.6477 43.7126Z" fill="white"/>
<path fill-rule="evenodd" clip-rule="evenodd" d="M69.8649 51.7058C69.7262 52.344 69.5873 52.9822 69.4486 53.6204C69.3376 54.231 69.2822 54.703 69.2822 55.0361C69.2822 55.3135 69.3514 55.5078 69.4901 55.6188C69.6566 55.7298 69.865 55.7852 70.1147 55.7852H71.7799L70.614 60.7811H65.785C64.6751 60.7811 63.9258 60.5868 63.5372 60.1984C63.1486 59.7821 62.9541 59.1991 62.954 58.4498C62.954 58.0231 63.0057 57.5196 63.1082 56.9392C63.044 57.0262 62.979 57.1137 62.9125 57.2009C62.0245 58.3388 60.956 59.3101 59.7072 60.1149C58.4583 60.892 57.0428 61.2803 55.4609 61.2804C53.7402 61.2804 52.3664 60.6699 51.3395 59.4488C50.3404 58.1999 49.8408 56.3127 49.8408 53.7872C49.8408 50.8731 50.3404 48.2502 51.3395 45.9189C52.3387 43.5877 53.7958 41.7422 55.7107 40.3823C57.6535 38.9947 60.0123 38.3009 62.7876 38.3009H72.9038L69.8649 51.7058ZM62.954 43.7126C61.7052 43.7126 60.6505 44.1014 59.7902 44.8784C58.9299 45.6277 58.2777 46.6545 57.8337 47.9588C57.3896 49.2355 57.1675 50.6509 57.1675 52.2051C57.1675 53.232 57.3063 53.9953 57.5838 54.4949C57.8891 54.9667 58.3471 55.2025 58.9576 55.2025C60.0955 55.2025 61.0809 54.7167 61.9135 53.7453C62.7738 52.7739 63.4539 51.0672 63.9535 48.625L64.9525 43.7126H62.954Z" fill="white"/>
<path fill-rule="evenodd" clip-rule="evenodd" d="M113.669 37.8012C115.612 37.8012 117.221 38.162 118.498 38.8836C119.802 39.5774 120.788 40.5487 121.454 41.7976C122.12 43.0465 122.453 44.4898 122.453 46.1273C122.453 47.1541 122.384 48.1533 122.245 49.1247C122.106 50.0682 121.926 50.9008 121.704 51.6224H107.059C107.053 51.8131 107.05 52.0073 107.05 52.2051C107.05 53.3985 107.355 54.2035 107.966 54.6198C108.604 55.0083 109.312 55.2025 110.089 55.2025C110.921 55.2025 111.671 55.0775 112.337 54.8277C113.03 54.578 113.475 54.0925 113.669 53.371L120.913 53.9537C119.969 56.2017 118.567 57.9917 116.708 59.3239C114.876 60.6282 112.309 61.2804 109.006 61.2804C105.842 61.2803 103.539 60.5033 102.096 58.9491C100.681 57.3671 99.9726 55.3134 99.9726 52.7878C99.9726 50.6232 100.278 48.625 100.889 46.7934C101.527 44.9617 102.443 43.3796 103.636 42.0474C104.83 40.6875 106.273 39.6467 107.966 38.9251C109.659 38.1758 111.56 37.8012 113.669 37.8012ZM112.67 43.879C111.782 43.879 110.991 44.0595 110.297 44.4202C109.603 44.781 109.006 45.3222 108.507 46.0438C108.256 46.4129 108.037 46.8294 107.849 47.2927H115.209C115.265 47.0707 115.306 46.8627 115.334 46.6685C115.362 46.4742 115.376 46.2383 115.376 45.9608C115.376 45.4058 115.168 44.9199 114.751 44.5036C114.363 44.0873 113.669 43.879 112.67 43.879Z" fill="white"/>
<path d="M40.3912 38.3009H49.1078L47.9419 43.7126H39.2249L37.9506 49.624C37.7564 50.5676 37.5897 51.3864 37.4509 52.0802C37.3121 52.7462 37.243 53.2875 37.243 53.7038C37.243 54.2034 37.4234 54.6059 37.7842 54.9112C38.1727 55.2164 38.7833 55.3689 39.6158 55.3689H45.4857L44.3618 60.7811H35.4114C33.3854 60.7811 31.9421 60.4202 31.0817 59.6986C30.2214 58.9771 29.7914 57.867 29.7913 56.3684C29.7913 55.4248 29.9022 54.3839 30.1242 53.246C30.3462 52.1081 30.5958 50.9006 30.8733 49.624L32.1476 43.7126H25.9194L27.0853 38.3009H33.3143L34.4539 33.0137H41.5308L40.3912 38.3009Z" fill="white"/>
<path d="M90.315 38.3009H99.0316L97.8657 43.7126H89.1487L87.8744 49.624C87.6802 50.5676 87.5135 51.3864 87.3747 52.0802C87.236 52.7462 87.1668 53.2875 87.1668 53.7038C87.1668 54.2034 87.3472 54.6059 87.708 54.9112C88.0965 55.2164 88.7071 55.3689 89.5396 55.3689H95.4095L94.2856 60.7811H85.3352C83.3093 60.7811 81.8659 60.4202 81.0055 59.6986C80.1452 58.9771 79.7152 57.867 79.7152 56.3684C79.7152 55.4248 79.826 54.3839 80.048 53.246C80.27 52.1081 80.5196 50.9006 80.7972 49.624L82.0714 43.7126H75.8432L77.0091 38.3009H83.2381L84.3777 33.0137H91.4546L90.315 38.3009Z" fill="white"/>
<path d="M61.5159 69.6365C61.9006 69.6365 62.2036 69.7263 62.4247 69.9054C62.6538 70.0845 62.7685 70.3449 62.7685 70.6867C62.7685 71.0287 62.6539 71.2893 62.4247 71.4685C62.1955 71.6394 61.8924 71.7251 61.5159 71.7251H60.3737V69.6365H61.5159Z" fill="white"/>
<path fill-rule="evenodd" clip-rule="evenodd" d="M91.1289 75.7579C90.631 78.1006 88.2858 80 85.8908 80H33.7136C31.3188 79.9999 29.7813 78.1005 30.2792 75.7579L32.8036 63.8813H93.6538L91.1289 75.7579ZM48.3108 67.7185L51.4547 76.3915H54.1815L57.3501 67.7185H54.8934L52.8302 73.6795L50.767 67.7185H48.3108ZM57.9666 67.7185V76.3915H60.3737V73.6431H61.7001C62.4288 73.6431 63.0555 73.5252 63.5795 73.289C64.1117 73.0447 64.517 72.7022 64.7953 72.2625C65.0818 71.8147 65.2248 71.2892 65.2248 70.6867C65.2247 69.7666 64.9095 69.0418 64.2791 68.5126C63.6569 67.9833 62.7972 67.7185 61.7001 67.7185H57.9666ZM66.1463 67.7185V76.3915H68.5534V71.7497L71.4644 76.3915H73.896V67.7185H71.489V72.6047L68.5783 67.7185H66.1463Z" fill="white"/>
</svg>
